<svg xmlns="http://www.w3.org/2000/svg" width="600" height="560" viewBox="0 0 600 560">
<circle cx="300" cy="280" r="246" fill="#fbe2e4"/>
<circle cx="300" cy="280" r="223" fill="#fff0eb"/>
<path transform="translate(104 128) scale(0.8)" fill="#efa0b3" d="M0 8C-12-6-26 6-17 17L0 32 17 17C26 6 12-6 0 8Z"/><path transform="translate(485 153) scale(0.65)" fill="#ef9aad" d="M0 8C-12-6-26 6-17 17L0 32 17 17C26 6 12-6 0 8Z"/><path transform="translate(520 356) scale(0.4)" fill="#ebafbc" d="M0 8C-12-6-26 6-17 17L0 32 17 17C26 6 12-6 0 8Z"/><path transform="translate(83 351) scale(0.45)" fill="#e9adbc" d="M0 8C-12-6-26 6-17 17L0 32 17 17C26 6 12-6 0 8Z"/>
<g fill="#ecc092"><circle cx="431" cy="79" r="5"/><circle cx="126" cy="428" r="5"/><path d="M509 226v18m-9-9h18" stroke="#dcb786" stroke-width="3" stroke-linecap="round"/></g>
<ellipse cx="296" cy="512" rx="177" ry="14" fill="#e5c5ce"/>
<path d="M159 237C130 116 173 68 254 69C344 60 371 125 346 270L319 342 171 330Z" fill="#584139"/>
<path d="M217 290L216 335 287 339 287 283" fill="#f5bf9e" stroke="#9f695d" stroke-width="4"/>
<path d="M208 318Q143 327 132 388L116 496Q126 515 160 512L355 512Q380 479 358 390Q352 335 296 321L253 350Z" fill="#fffaf3" stroke="#ae8077" stroke-width="4"/>
<path d="M208 318L253 350 231 376 190 326M296 321L253 350 275 375 314 329" fill="#f1d8c7" stroke="#ae8077" stroke-width="3" stroke-linejoin="round"/>
<path d="M164 401L155 481Q211 503 279 482" fill="none" stroke="#b8948a" stroke-width="4" stroke-linecap="round"/>
<path d="M324 371Q353 367 374 409L397 443 407 428 441 438Q437 480 409 494Q387 503 368 483L329 438" fill="#fffaf3" stroke="#ae8077" stroke-width="4" stroke-linejoin="round"/>
<path d="M395 443L405 424 439 435 435 453Z" fill="#f1d8c7" stroke="#ae8077" stroke-width="3"/>
<circle cx="254" cy="396" r="4" fill="#bc9284"/><circle cx="254" cy="441" r="4" fill="#bc9284"/>
<ellipse cx="170" cy="206" rx="17" ry="24" fill="#f7c7a9" stroke="#9f695d" stroke-width="3"/>
<ellipse cx="332" cy="206" rx="17" ry="24" fill="#f7c7a9" stroke="#9f695d" stroke-width="3"/>
<path d="M174 153Q170 115 246 110Q328 108 330 171L326 225Q322 285 254 307Q185 285 177 231Z" fill="#f9ceb0" stroke="#9f695d" stroke-width="4"/>
<path d="M171 172Q171 96 244 98Q326 89 339 174Q291 159 260 126Q224 170 171 172Z" fill="#584139"/>
<path d="M179 137Q207 95 252 98" fill="none" stroke="#79574a" stroke-width="6" stroke-linecap="round"/>
<path d="M199 205Q211 193 223 205M280 205Q292 193 304 205" fill="none" stroke="#634438" stroke-width="6" stroke-linecap="round"/>
<ellipse cx="202" cy="230" rx="19" ry="11" fill="#ed9b95" opacity=".6"/><ellipse cx="301" cy="230" rx="19" ry="11" fill="#ed9b95" opacity=".6"/>
<path d="M249 219L245 230 253 232" fill="none" stroke="#ce9179" stroke-width="3" stroke-linecap="round"/>
<path d="M232 248Q252 279 273 248Z" fill="#b95664" stroke="#a15158" stroke-width="3" stroke-linejoin="round"/>
<path d="M239 249H266" stroke="#fff7ec" stroke-width="5" stroke-linecap="round"/>
<circle cx="174" cy="236" r="5" fill="#deb369"/><circle cx="332" cy="236" r="5" fill="#deb369"/>
</svg>